<svg width="32" height="32" viewBox="0 0 32 32" fill="none" xmlns="http://www.w3.org/2000/svg">
<path d="M16.1333 29.3333C14.2667 29.3333 12.5169 28.9778 10.884 28.2667C9.25112 27.5556 7.82889 26.5947 6.61734 25.384C5.40578 24.1733 4.44445 22.7511 3.73334 21.1173C3.02223 19.4836 2.66667 17.7333 2.66667 15.8667C2.66667 13.0222 3.46667 10.4445 5.06667 8.13334C6.66667 5.82223 8.81112 4.20001 11.5 3.26667C11.9889 3.0889 12.4444 3.15023 12.8667 3.45067C13.2889 3.75112 13.4889 4.15645 13.4667 4.66667C13.4 6.55556 13.7 8.35556 14.3667 10.0667C15.0333 11.7778 16.0333 13.3 17.3667 14.6333C18.7 15.9667 20.2222 16.9667 21.9333 17.6333C23.6445 18.3 25.4445 18.6 27.3333 18.5333C27.9111 18.5111 28.3391 18.7058 28.6173 19.1173C28.8956 19.5289 28.9453 19.9898 28.7667 20.5C27.7889 23.1667 26.1502 25.3058 23.8507 26.9173C21.5511 28.5289 18.9787 29.3342 16.1333 29.3333Z" fill="#C7547F"/>
</svg>
