<svg width="32" height="32" viewBox="0 0 32 32" fill="none" xmlns="http://www.w3.org/2000/svg">
<path d="M1.33333 24.2V8.13333C1.33333 7.88888 1.39467 7.65555 1.51733 7.43333C1.64 7.21111 1.82311 7.04444 2.06667 6.93333C3.08889 6.39999 4.15555 5.99999 5.26667 5.73333C6.37778 5.46666 7.51111 5.33333 8.66667 5.33333C10.3111 5.33333 11.7111 5.52222 12.8667 5.89999C14.0222 6.27777 15.2667 6.85555 16.6 7.63333C16.8444 7.76666 17.028 7.92222 17.1507 8.09999C17.2733 8.27777 17.3342 8.51111 17.3333 8.79999V22.7333C18.3111 22.2667 19.2947 21.9164 20.284 21.6827C21.2733 21.4489 22.2898 21.3324 23.3333 21.3333C24.1333 21.3333 24.9169 21.4 25.684 21.5333C26.4511 21.6667 27.2231 21.8667 28 22.1333V7.43333C28 7.05555 28.128 6.73866 28.384 6.48266C28.64 6.22666 28.9564 6.09911 29.3333 6.09999C29.7102 6.10088 30.0271 6.22888 30.284 6.48399C30.5409 6.73911 30.6684 7.05555 30.6667 7.43333V24.2C30.6667 24.7111 30.4498 25.1 30.016 25.3667C29.5822 25.6333 29.1324 25.6444 28.6667 25.4C27.8444 24.9556 26.9836 24.6111 26.084 24.3667C25.1844 24.1222 24.2676 24 23.3333 24C22.2444 24 21.1836 24.1613 20.1507 24.484C19.1178 24.8067 18.1342 25.2564 17.2 25.8333C17.0222 25.9444 16.828 26.028 16.6173 26.084C16.4067 26.14 16.2009 26.1676 16 26.1667C15.7991 26.1658 15.5938 26.1382 15.384 26.084C15.1742 26.0298 14.9796 25.9462 14.8 25.8333C13.8667 25.2556 12.8836 24.8058 11.8507 24.484C10.8178 24.1622 9.75644 24.0009 8.66667 24C7.73333 24 6.81689 24.1222 5.91733 24.3667C5.01778 24.6111 4.15644 24.9556 3.33333 25.4C2.86667 25.6444 2.41689 25.6333 1.984 25.3667C1.55111 25.1 1.33422 24.7111 1.33333 24.2ZM20.6667 17.2667V4.96666C20.6667 4.67777 20.7502 4.41644 20.9173 4.18266C21.0844 3.94888 21.3009 3.78799 21.5667 3.69999L23.3667 3.09999C23.6778 2.98888 23.9724 3.03911 24.2507 3.25066C24.5289 3.46222 24.6676 3.73422 24.6667 4.06666V16.3667C24.6667 16.6556 24.5836 16.9169 24.4173 17.1507C24.2511 17.3844 24.0342 17.5453 23.7667 17.6333L21.9667 18.2333C21.6556 18.3444 21.3609 18.2947 21.0827 18.084C20.8044 17.8733 20.6658 17.6009 20.6667 17.2667Z" fill="#C7547F"/>
</svg>
