<svg width="32" height="32" viewBox="0 0 32 32" fill="none" xmlns="http://www.w3.org/2000/svg">
<path d="M16.4905 22.9235C16.6381 22.861 16.7803 22.7678 16.9171 22.6438C17.6464 21.9247 18.3415 21.2179 19.0024 20.5236C19.6633 19.8293 20.239 19.1474 20.7294 18.4778C21.2199 17.8083 21.6128 17.1576 21.9081 16.5258C22.2035 15.8939 22.3516 15.28 22.3525 14.6838C22.3525 13.5927 22.0107 12.6876 21.327 11.9685C20.6433 11.2494 19.8228 10.8898 18.8656 10.8898C18.2731 10.8898 17.7321 11.0203 17.2425 11.2811C16.753 11.542 16.3368 11.8827 15.9941 12.3033C15.6522 11.8817 15.2251 11.541 14.7128 11.2811C14.2005 11.0213 13.6704 10.8908 13.1225 10.8898C12.1653 10.8898 11.3449 11.2494 10.6612 11.9685C9.97749 12.6876 9.63564 13.5927 9.63564 14.6838C9.63564 15.279 9.78377 15.893 10.08 16.5258C10.3763 17.1586 10.7697 17.8093 11.2601 18.4778C11.7506 19.1464 12.3258 19.8283 12.9858 20.5236C13.6458 21.2189 14.3409 21.9256 15.0711 22.6438C15.2078 22.7678 15.3505 22.861 15.4991 22.9235C15.6477 22.986 15.8127 23.0167 15.9941 23.0157C16.1755 23.0147 16.341 22.984 16.4905 22.9235ZM7.78964 28C7.03756 28 6.39397 27.7089 5.85886 27.1266C5.32375 26.5444 5.05573 25.8436 5.05482 25.0243V14.0515L3.68742 15.2046C3.36835 15.4525 3.0265 15.5517 2.66186 15.5021C2.29722 15.4526 2.00095 15.2542 1.77304 14.907C1.54514 14.5598 1.45991 14.1879 1.51734 13.7911C1.57477 13.3944 1.75117 13.072 2.04653 12.824L14.319 2.59514C14.5697 2.39676 14.8377 2.24797 15.123 2.14878C15.4084 2.04959 15.6987 2 15.9941 2C16.2894 2 16.5802 2.04959 16.8665 2.14878C17.1527 2.24797 17.4203 2.39676 17.6692 2.59514L29.9758 12.824C30.2721 13.072 30.443 13.3944 30.4886 13.7911C30.5342 14.1879 30.443 14.5598 30.2151 14.907C29.9872 15.2294 29.691 15.4154 29.3263 15.4649C28.9617 15.5145 28.6312 15.4154 28.3349 15.1674L26.9333 14.0515V25.0243C26.9333 25.8426 26.6658 26.5434 26.1307 27.1266C25.5956 27.7099 24.9515 28.001 24.1985 28H7.78964ZM7.78964 25.0243H24.1985V11.7825L15.9941 4.97568L7.78964 11.7825V25.0243Z" fill="#C7547F"/>
</svg>
