<svg width="32" height="32" viewBox="0 0 32 32" fill="none" xmlns="http://www.w3.org/2000/svg">
<path d="M16 20.6667C17.2 20.6667 18.2947 20.3391 19.284 19.684C20.2733 19.0289 21.0231 18.1564 21.5333 17.0667C21.6889 16.7333 21.6889 16.4 21.5333 16.0667C21.3778 15.7333 21.1222 15.5 20.7667 15.3667C20.4333 15.2333 20.1058 15.2391 19.784 15.384C19.4622 15.5289 19.2231 15.7676 19.0667 16.1C18.8 16.7 18.3836 17.1667 17.8173 17.5C17.2511 17.8333 16.6453 18 16 18C15.3547 18 14.7493 17.8333 14.184 17.5C13.6187 17.1667 13.2018 16.7 12.9333 16.1C12.7778 15.7667 12.5391 15.528 12.2173 15.384C11.8956 15.24 11.5676 15.2342 11.2333 15.3667C10.8778 15.5 10.6222 15.7333 10.4667 16.0667C10.3111 16.4 10.3111 16.7333 10.4667 17.0667C10.9778 18.1556 11.728 19.028 12.7173 19.684C13.7067 20.34 14.8009 20.6676 16 20.6667ZM13.5173 13.516C13.8391 13.1942 14 12.8 14 12.3333C14 11.8667 13.8387 11.472 13.516 11.1493C13.1933 10.8267 12.7991 10.6658 12.3333 10.6667C11.8676 10.6676 11.4729 10.8289 11.1493 11.1507C10.8258 11.4724 10.6649 11.8667 10.6667 12.3333C10.6684 12.8 10.8298 13.1947 11.1507 13.5173C11.4716 13.84 11.8658 14.0009 12.3333 14C12.8009 13.9991 13.1956 13.8378 13.5173 13.516ZM20.8507 13.516C21.1724 13.1951 21.3333 12.8009 21.3333 12.3333C21.3333 11.8658 21.172 11.4711 20.8493 11.1493C20.5267 10.8276 20.1324 10.6667 19.6667 10.6667C19.2009 10.6667 18.8062 10.828 18.4827 11.1507C18.1591 11.4733 17.9982 11.8676 18 12.3333C18.0018 12.7991 18.1631 13.1938 18.484 13.5173C18.8049 13.8409 19.1991 14.0018 19.6667 14C20.1342 13.9982 20.5289 13.8369 20.8507 13.516ZM16 6.8C16.7556 5.91111 17.6556 5.22222 18.7 4.73333C19.7444 4.24444 20.8444 4 22 4C24.0889 4 25.8333 4.7 27.2333 6.1C28.6333 7.5 29.3333 9.24444 29.3333 11.3333C29.3333 12.2667 29.1947 13.1613 28.9173 14.0173C28.64 14.8733 28.1622 15.7956 27.484 16.784C26.8058 17.7724 25.8947 18.8556 24.7507 20.0333C23.6067 21.2111 22.1676 22.5778 20.4333 24.1333L17.7667 26.4667C17.2556 26.9111 16.6667 27.1333 16 27.1333C15.3333 27.1333 14.7444 26.9111 14.2333 26.4667L11.5667 24.1333C9.83334 22.5778 8.39422 21.2111 7.24933 20.0333C6.10445 18.8556 5.19334 17.7724 4.516 16.784C3.83867 15.7956 3.36089 14.8733 3.08267 14.0173C2.80445 13.1613 2.66578 12.2667 2.66667 11.3333C2.66667 9.24444 3.36667 7.5 4.76667 6.1C6.16667 4.7 7.91111 4 10 4C11.1556 4 12.2556 4.24444 13.3 4.73333C14.3444 5.22222 15.2444 5.91111 16 6.8Z" fill="#C7547F"/>
</svg>
