<svg width="20" height="20" viewBox="0 0 20 20" fill="none" xmlns="http://www.w3.org/2000/svg">
<path d="M8.88889 11.1111V13.3333C8.88889 13.6481 8.99555 13.9122 9.20889 14.1255C9.42222 14.3389 9.68592 14.4452 10 14.4444C10.3141 14.4437 10.5781 14.337 10.7922 14.1244C11.0063 13.9118 11.1126 13.6481 11.1111 13.3333V11.1111H13.3333C13.6481 11.1111 13.9122 11.0044 14.1256 10.7911C14.3389 10.5778 14.4452 10.3141 14.4444 9.99999C14.4437 9.68592 14.337 9.42222 14.1244 9.20888C13.9118 8.99555 13.6481 8.88888 13.3333 8.88888H11.1111V6.66666C11.1111 6.35185 11.0044 6.08814 10.7911 5.87555C10.5778 5.66296 10.3141 5.55629 10 5.55555C9.68592 5.55481 9.42222 5.66148 9.20889 5.87555C8.99555 6.08963 8.88889 6.35333 8.88889 6.66666V8.88888H6.66666C6.35185 8.88888 6.08815 8.99555 5.87555 9.20888C5.66296 9.42222 5.55629 9.68592 5.55555 9.99999C5.55481 10.3141 5.66148 10.5781 5.87555 10.7922C6.08963 11.0063 6.35333 11.1126 6.66666 11.1111H8.88889ZM6.09778 19.2089C4.88444 18.6807 3.82889 17.9678 2.93111 17.07C2.03333 16.1722 1.32037 15.1167 0.792222 13.9033C0.264074 12.69 0 11.3889 0 9.99999C0 8.61111 0.264074 7.31037 0.792222 6.09777C1.32037 4.88518 2.03296 3.82963 2.93 2.93111C3.82704 2.03259 4.88259 1.31963 6.09667 0.792223C7.31074 0.264816 8.61185 0.000742294 10 1.554e-06C11.3881 -0.000739186 12.6893 0.263334 13.9033 0.792223C15.1174 1.32111 16.173 2.03407 17.07 2.93111C17.967 3.82815 18.68 4.8837 19.2089 6.09777C19.7378 7.31185 20.0015 8.61259 20 9.99999C19.9985 11.3874 19.7348 12.6885 19.2089 13.9033C18.683 15.1181 17.97 16.1737 17.07 17.07C16.17 17.9663 15.1144 18.6792 13.9033 19.2089C12.6922 19.7385 11.3911 20.0022 10 20C8.60889 19.9978 7.30815 19.7341 6.09778 19.2089ZM10 17.7778C12.1667 17.7778 14.0048 17.0233 15.5144 15.5144C17.0241 14.0055 17.7785 12.1674 17.7778 9.99999C17.777 7.83259 17.0226 5.99481 15.5144 4.48666C14.0063 2.97852 12.1681 2.2237 10 2.22222C7.83185 2.22074 5.99407 2.97555 4.48667 4.48666C2.97926 5.99777 2.22444 7.83555 2.22222 9.99999C2.22 12.1644 2.97481 14.0026 4.48667 15.5144C5.99852 17.0263 7.83629 17.7807 10 17.7778Z" fill="#C7547F"/>
</svg>
